<svg xmlns="http://www.w3.org/2000/svg" viewBox="0 0 48 48"><defs><style>.cls-1{fill:#f1c40f;}.cls-2{fill:#fff;}</style></defs><title>insta</title><g id="Layer_2" data-name="Layer 2"><g id="Icons"><rect class="cls-1" width="48" height="48" rx="12"/><path id="Photobucket" class="cls-2" d="M37.64,14.37H29.28a10.86,10.86,0,0,0-10.56,0h-2.9A1.38,1.38,0,0,0,14.45,13H11.73a1.38,1.38,0,0,0-1.37,1.37h0A1.37,1.37,0,0,0,9,15.75v16.5a1.37,1.37,0,0,0,1.36,1.38h8.36a10.86,10.86,0,0,0,10.56,0h8.36A1.37,1.37,0,0,0,39,32.25V15.75a1.37,1.37,0,0,0-1.36-1.38ZM10.36,32.25V15.75H16.8a11,11,0,0,0,0,16.5Zm18.54,0a9.8,9.8,0,0,1-2.27,1l-.14,0c-.33.09-.67.16-1,.22l-.28,0a8,8,0,0,1-2.4,0l-.29,0c-.34-.06-.67-.13-1-.22l-.14,0a9.8,9.8,0,0,1-2.27-1,9.64,9.64,0,0,1,0-16.5,9.8,9.8,0,0,1,2.27-1l.14,0c.33-.09.66-.16,1-.22l.29,0a8,8,0,0,1,2.4,0l.29,0c.34.06.67.13,1,.22l.14,0a9.8,9.8,0,0,1,2.27,1,9.64,9.64,0,0,1,0,16.5Zm8.74,0H31.2a11,11,0,0,0,0-16.5h6.44v16.5ZM31.5,24H30.35A6.38,6.38,0,0,0,24,17.6V16.44A7.53,7.53,0,0,1,31.5,24Z"/></g></g></svg>