<svg id="dragon" xmlns="http://www.w3.org/2000/svg" viewBox="0 0 202.82 85.3"><defs><style>.cls-1{fill:#333d82;}.cls-2{fill:#b28710;}.cls-3{fill:#ddac10;}.cls-4{fill:#000651;}.cls-5{fill:#fff;}</style></defs><title>logo</title><rect class="cls-1" x="44.44" y="65.06" width="152.34" height="13.09"/><path class="cls-2" d="M45.58,18.91l6,3.76V8.27L44.49,1.9H24.73l-7.1,6.37V27l3.54,2.76,5.23,4.09,14,10.92V58.4H28.84V54.34l-4-2.5-5.4-3.38-1.82-1.14v14.4l.16.15L21,64.74l3.52,3.15.22.2H44.49l1.79-1.6,5.32-4.77v-22L49.75,38.3l-5.2-4.1-1.79-1.41L28.84,21.84V11.6H40.38v4.06Z"/><path class="cls-2" d="M35.07,58.4H30.64l-.13-6.17A9.34,9.34,0,0,1,35.07,58.4Z"/><path class="cls-2" d="M26.4,33.82l-2.15-.14a11.16,11.16,0,0,1-3.08-3.95Z"/><path class="cls-2" d="M48.7,31.42H65.52v5.5H48.7Zm5.54,2.82H60V65H54.24Z"/><path class="cls-2" d="M68.24,31.4h5.62V65H68.24Zm2.57,13.91h6A2.84,2.84,0,0,0,78.14,45a1.84,1.84,0,0,0,.82-.76,2.35,2.35,0,0,0,.28-1.19V39.35A2.86,2.86,0,0,0,79,38a1.85,1.85,0,0,0-.82-.84,2.6,2.6,0,0,0-1.28-.29h-6V31.4h5.7a11.13,11.13,0,0,1,4.66.89,6.46,6.46,0,0,1,2.94,2.61,7.94,7.94,0,0,1,1,4.12V43a8.35,8.35,0,0,1-1,4.24,6.59,6.59,0,0,1-3,2.69,10.72,10.72,0,0,1-4.65.92h-5.7Zm4.66,4.45,5.25-1.06L86.08,65H79.93Z"/><path class="cls-2" d="M94.85,31.42h4l8,33.59h-5.68L96.86,43,92.52,65H86.84Zm-2.56,23h9.15v5.36H92.29Z"/><path class="cls-2" d="M106.15,31.42H123v5.5H106.15Zm5.54,2.82h5.73V65h-5.73Z"/><path class="cls-2" d="M125.69,31.42h5.73V65h-5.73Zm2.73,14.35h11.25v5.38H128.42ZM136,31.42h5.73V65H136Z"/><path class="cls-2" d="M145.79,31.4h5.61V65h-5.61Zm2.56,13.91h6.05a2.89,2.89,0,0,0,1.29-.27,1.89,1.89,0,0,0,.82-.76,2.46,2.46,0,0,0,.27-1.19V39.35a3,3,0,0,0-.27-1.32,1.9,1.9,0,0,0-.82-.84,2.64,2.64,0,0,0-1.29-.29h-6.05V31.4h5.71a11.08,11.08,0,0,1,4.65.89,6.43,6.43,0,0,1,2.95,2.61,7.94,7.94,0,0,1,1,4.12V43a8.34,8.34,0,0,1-1,4.24,6.62,6.62,0,0,1-3,2.69,10.64,10.64,0,0,1-4.64.92h-5.71ZM153,49.76l5.24-1.06L163.62,65h-6.14Z"/><path class="cls-2" d="M170.19,64.42a6.64,6.64,0,0,1-2.94-2.7,8.4,8.4,0,0,1-1-4.26V39a8.47,8.47,0,0,1,1-4.28,6.64,6.64,0,0,1,2.94-2.7,12.14,12.14,0,0,1,9.27,0,6.64,6.64,0,0,1,2.94,2.7,8.47,8.47,0,0,1,1,4.28V57.46a8.4,8.4,0,0,1-1,4.26,6.64,6.64,0,0,1-2.94,2.7,11.9,11.9,0,0,1-9.27,0Zm6.15-5.14a2.29,2.29,0,0,0,1-1,3.57,3.57,0,0,0,.32-1.57v-17a3.51,3.51,0,0,0-.32-1.55,2.29,2.29,0,0,0-1-1,3.16,3.16,0,0,0-1.52-.35,3.08,3.08,0,0,0-1.5.35,2.25,2.25,0,0,0-.94,1,3.38,3.38,0,0,0-.33,1.55v17a3.44,3.44,0,0,0,.33,1.57,2.25,2.25,0,0,0,.94,1,3.08,3.08,0,0,0,1.5.35A3.16,3.16,0,0,0,176.34,59.28Z"/><path class="cls-2" d="M196.77,52.14V65H191V52.14l-6.28-20.72h6l3.14,13.91,3-13.91h6Z"/><path class="cls-3" d="M68.1,68h.61v6.19H68.1Zm.51,5.62h1.21a.65.65,0,0,0,.43-.14.5.5,0,0,0,.15-.39V72a1,1,0,0,0-.08-.41.65.65,0,0,0-.23-.26.57.57,0,0,0-.32-.09H68.61v-.57h1.16a.5.5,0,0,0,.41-.18.8.8,0,0,0,.14-.5v-.89a.53.53,0,0,0-.14-.39.57.57,0,0,0-.4-.14H68.61V68h1.15a1.48,1.48,0,0,1,.63.12.9.9,0,0,1,.4.37,1,1,0,0,1,.14.57v.83a1.64,1.64,0,0,1-.07.52,1,1,0,0,1-.19.37.69.69,0,0,1-.31.2.67.67,0,0,1,.35.19.94.94,0,0,1,.23.39,1.79,1.79,0,0,1,.07.55v1a1.2,1.2,0,0,1-.13.59.87.87,0,0,1-.39.37,1.28,1.28,0,0,1-.61.13H68.61Z"/><path class="cls-3" d="M75.25,68h.61v6.19h-.61Zm.38,3h1.14a1,1,0,0,0,.48-.1.72.72,0,0,0,.3-.3,1,1,0,0,0,.11-.48v-.63a1.09,1.09,0,0,0-.11-.5.77.77,0,0,0-.3-.32,1,1,0,0,0-.48-.1H75.63V68h1.1a1.89,1.89,0,0,1,.83.16,1.18,1.18,0,0,1,.53.48,1.5,1.5,0,0,1,.18.76v.72a1.62,1.62,0,0,1-.18.79,1.2,1.2,0,0,1-.53.49,1.76,1.76,0,0,1-.83.17h-1.1Zm1.28.38.55-.19,1,3h-.71Z"/><path class="cls-3" d="M82.68,68h.61v6.19h-.61Zm.42,0h2.24v.57H83.1Zm0,2.83h2v.57h-2Zm0,2.79h2.24v.57H83.1Z"/><path class="cls-3" d="M91.24,68h.51l.84,5.49L93.26,68h.65L93,74.16h-.84l-.63-4.54-.68,4.54H90L89.08,68h.65l.66,5.49Z"/><path class="cls-3" d="M98.61,74.16H98V68h.61Z"/><path class="cls-3" d="M103,68h.58l2,5.08-.1.12V68h.61v6.19h-.59l-2-5.09.1-.11v5.2H103Z"/><path class="cls-3" d="M113.43,70.83v1.8a1.86,1.86,0,0,1-.18.86,1.18,1.18,0,0,1-.51.55,1.66,1.66,0,0,1-.8.18,1.74,1.74,0,0,1-.82-.17,1.2,1.2,0,0,1-.51-.51,1.73,1.73,0,0,1-.18-.81V69.5a1.86,1.86,0,0,1,.17-.86,1.29,1.29,0,0,1,.51-.55,1.7,1.7,0,0,1,.81-.18,1.61,1.61,0,0,1,.78.18,1.12,1.12,0,0,1,.5.53,1.78,1.78,0,0,1,.17.83v.3h-.66v-.3a1.35,1.35,0,0,0-.09-.52.66.66,0,0,0-.27-.32.77.77,0,0,0-.43-.11.9.9,0,0,0-.48.12.74.74,0,0,0-.3.33,1.5,1.5,0,0,0-.1.55v3.23a1.07,1.07,0,0,0,.11.49.75.75,0,0,0,.3.31,1.07,1.07,0,0,0,.49.1,1,1,0,0,0,.47-.11.77.77,0,0,0,.3-.34,1.22,1.22,0,0,0,.1-.53V71.4h-.89v-.57Z"/><path class="cls-3" d="M123.67,74a1.28,1.28,0,0,1-.49-.54,2,2,0,0,1-.17-.86V69.5a2,2,0,0,1,.17-.86,1.25,1.25,0,0,1,.49-.55,1.61,1.61,0,0,1,.78-.18,1.58,1.58,0,0,1,.78.18,1.25,1.25,0,0,1,.49.55,2,2,0,0,1,.17.85v.23h-.61v-.23a1.27,1.27,0,0,0-.1-.54.7.7,0,0,0-.28-.33.79.79,0,0,0-.45-.12.78.78,0,0,0-.44.12.72.72,0,0,0-.29.33,1.5,1.5,0,0,0-.1.55v3.14a1.44,1.44,0,0,0,.1.54.75.75,0,0,0,.29.34.87.87,0,0,0,.44.11.88.88,0,0,0,.45-.11.73.73,0,0,0,.28-.34,1.27,1.27,0,0,0,.1-.54v-.22h.61v.22a2,2,0,0,1-.17.86,1.28,1.28,0,0,1-.49.54,1.58,1.58,0,0,1-.78.18A1.61,1.61,0,0,1,123.67,74Z"/><path class="cls-3" d="M130.68,74a1.21,1.21,0,0,1-.52-.53,1.68,1.68,0,0,1-.19-.84V69.46a1.71,1.71,0,0,1,.19-.84,1.21,1.21,0,0,1,.52-.53,1.78,1.78,0,0,1,.83-.18,1.76,1.76,0,0,1,.83.18,1.23,1.23,0,0,1,.53.53,1.83,1.83,0,0,1,.18.84v3.21a1.8,1.8,0,0,1-.18.84,1.23,1.23,0,0,1-.53.53,1.64,1.64,0,0,1-.83.18A1.67,1.67,0,0,1,130.68,74Zm1.33-.52a.71.71,0,0,0,.32-.32,1.12,1.12,0,0,0,.1-.5V69.44a1.13,1.13,0,0,0-.1-.51.69.69,0,0,0-.32-.31,1.19,1.19,0,0,0-1,0,.67.67,0,0,0-.31.31,1,1,0,0,0-.11.51V72.7a1,1,0,0,0,.11.5.69.69,0,0,0,.31.32,1.19,1.19,0,0,0,1,0Z"/><path class="cls-3" d="M140.69,68h.6v6.19h-.59v-5l0,.28-1.18,3.84H139l-1.18-3.76,0-.36v5h-.6V68h.61l1.39,4.52Z"/><path class="cls-3" d="M145.63,68h.62v6.19h-.62Zm.45,3.22h1.32a.67.67,0,0,0,.33-.08.63.63,0,0,0,.2-.25.86.86,0,0,0,.07-.38V69.27a.94.94,0,0,0-.07-.39.51.51,0,0,0-.2-.25.58.58,0,0,0-.33-.09h-1.32V68h1.29a1.38,1.38,0,0,1,.67.15,1,1,0,0,1,.43.45,1.51,1.51,0,0,1,.15.7v1.22a1.47,1.47,0,0,1-.15.69,1,1,0,0,1-.43.43,1.38,1.38,0,0,1-.67.15h-1.29Z"/><path class="cls-3" d="M153.69,68h.74l1.43,6.19h-.68l-1.12-5.51-1.12,5.51h-.68Zm-.64,4.12h2.11v.57h-2.11Z"/><path class="cls-3" d="M159.9,68h.58l2,5.08-.1.12V68h.6v6.19h-.58l-2-5.09.1-.11v5.2h-.61Z"/><path class="cls-3" d="M168.89,71.56v2.6h-.61v-2.6L166.94,68h.63l1,2.88,1-2.88h.63Z"/><path class="cls-4" d="M57.19,66.55c-2.89-.31,2.14-1.93,2.14-1.93s-2.44-2.27-7.83,1.93l-4.94.2L40.85,67s4.28-3.19,2.73-16l0,0-2.89,2.33-4.19,3.37-.21.17-.84.68h0L35,56.26l5.72-5.65,1.86-1.84,0,0s3.17-6.94,2.73-11.25H48s1.4,2.21,1.92,2.2c.2,0,.19-.51.1-1.14a21.9,21.9,0,0,0-.47-2.18s3.23-.22,4.17.81-.4-2.15-3.13-2.48l3.13-.84a3.71,3.71,0,0,0-3.28-1.29c-2.15.23,2.59-1,2.59-1s-1.92-1.36-3.33-.06-2.29,2-2.29,2l-.54.74-2,.24-2.18.24s-4.54,1-4.4,0-2-3.91-2-3.91V30L39.89,33h2.29l.86.09,1.14.11-.06-3.3s-17.55-6.15-10-15.51l.9.72,5.32.59s3.59,4,4.64,4.19c.41.07.7-.26.9-.69a6.08,6.08,0,0,0,.41-1.6h-2s-1.48-2-.89-2.34a9.37,9.37,0,0,1,2.51-.29l-3.69-2.67h4.71l.39,1.91h1.63s.29-3.46-.82-4.56-6.87-.74-6.87-.74l-.37-2.15H30v.53h1.43s1.18,1.85.71,2-14.43,8-3.26,20.05v4.88l-2.17-.15-2.15-.14A11.26,11.26,0,0,1,21.45,30a13.64,13.64,0,0,1-1.23-7.52l-2.31-2.57L0,0V8.21L17.11,22.48l-.81,1L0,11.39v5.73L17.56,26.4h-3.7S1.66,21.29,1.22,20.7s3.47,6.88,3.47,6.88L18,28.69v1.62L8.61,29.8,2.85,28.47l3.92,5L20,32.58S19.78,34.71,8.54,36l4.36,3.34,9.17-4.06L14.6,40.15,18.89,42l4.95-4.5s.3,2.2-2.88,5.31h3.51L26.83,38l1.59.21L26.8,42.81h1.62S28,48.27,25.13,52.1A9.29,9.29,0,0,1,22,54.84H18.67a29.54,29.54,0,0,0,1.07-6.12c.07-2-.29-3.76-1.76-3.91-3.52-.38-7.29,6.27-12-1.36.21.47,4.75,10.36,9,3.5,0,0,4.38-.24.77,4.34-4.53,5.72-1.21,9.43,2.34,10.84a7.21,7.21,0,0,0,4,.52A16.6,16.6,0,0,1,21.28,65a4.58,4.58,0,0,1-1.06,1.55c-1.11.88-.52,10.71-.52,10.71A3.43,3.43,0,0,0,18,80a2.89,2.89,0,0,0,.76,2.44l.82-3.26s4.43,2,4.21,5.25.7-3.69.7-3.69,2,.81,2.4,1.92c-.19-.65-.81-2.59-.81-2.59l-.22-2,2.58.08-2.14-1.34-4.14-.14-.22-3.18s-.16-1.43,1.85-4.24a6.42,6.42,0,0,1,1-1.09c2.54-2.23,7.45-4.65,6.21-5.43l-.08-4.07-.14-6.17a9.34,9.34,0,0,1,4.57,6.17c0,.11,0,.23.07.34A69.43,69.43,0,0,1,36,68.35c0,2.58,0,4.55,0,4.55l11.46-3.11h3.4v3.78l1.92.51L51.94,73l.15-2.51,3-.22s3.18,1.55,3.47,3.18.74,1,.74,1,1.48-3-2.74-5.2c0,0,1.82-2.19,3-.71S60.07,66.86,57.19,66.55ZM36.23,9h4.06l-.92.7-.22.7H37.78l-.41-.73H36.23Z"/><polygon class="cls-5" points="40 8.69 39.08 9.39 38.86 10.09 37.49 10.09 37.09 9.35 35.94 9.35 35.94 8.69 40 8.69"/><path class="cls-5" d="M47.14,33.23l-.53.74-4.24.48s-4.54,1-4.4,0-2-3.92-2-3.92v-.77l3.66,2.95h2.29l2,.2v0Z"/><polygon class="cls-5" points="43.3 50.8 34.88 57.52 34.39 56.17 42.23 48.49 43.3 50.8"/></svg>