<svg id="dragon" xmlns="http://www.w3.org/2000/svg" viewBox="0 0 13.23 5.56"><defs><style>.cls-1{fill:#333d82;}.cls-2{fill:#b28710;}.cls-3{fill:#ddac10;}.cls-4{fill:#000651;}.cls-5{fill:#fff;}</style></defs><title>logo</title><rect class="cls-1" x="2.9" y="4.24" width="9.93" height="0.85"/><path class="cls-2" d="M3,1.23l.39.25V.54L2.9.12H1.61L1.15.54V1.76l.23.18.34.27.91.71v.89H1.88V3.54l-.26-.16-.35-.22-.12-.07V4h0l.21.19.23.21H2.9L3,4.34,3.36,4V2.59L3.24,2.5,2.9,2.23l-.11-.09-.91-.72V.76h.75V1Z"/><path class="cls-2" d="M2.29,3.81H2v-.4A.59.59,0,0,1,2.29,3.81Z"/><path class="cls-2" d="M1.72,2.21H1.58a.75.75,0,0,1-.2-.26Z"/><path class="cls-2" d="M3.18,2.05H4.27v.36H3.18Zm.36.18h.37v2H3.54Z"/><path class="cls-2" d="M4.45,2.05h.37V4.24H4.45Zm.17.9H5.1a.12.12,0,0,0,.05,0,.19.19,0,0,0,0-.08V2.57a.2.2,0,0,0,0-.09L5.1,2.42H4.62V2.05H5a.67.67,0,0,1,.3.06.32.32,0,0,1,.19.17.44.44,0,0,1,.07.26V2.8a.51.51,0,0,1-.07.28.4.4,0,0,1-.19.17.67.67,0,0,1-.3.06H4.62Zm.3.29.34-.06.35,1.06h-.4Z"/><path class="cls-2" d="M6.19,2.05h.26L7,4.24H6.6L6.32,2.8,6,4.24H5.66ZM6,3.55h.59V3.9H6Z"/><path class="cls-2" d="M6.92,2.05H8v.36H6.92Zm.36.18h.38v2H7.28Z"/><path class="cls-2" d="M8.2,2.05h.37V4.24H8.2ZM8.37,3h.74v.36H8.37Zm.49-.93h.38V4.24H8.86Z"/><path class="cls-2" d="M9.51,2.05h.36V4.24H9.51Zm.16.9h.48s0,0,.06,0a.19.19,0,0,0,0-.08V2.57a.22.22,0,0,0,0-.09l-.06-.06H9.67V2.05h.38a.7.7,0,0,1,.3.06.35.35,0,0,1,.19.17.44.44,0,0,1,.07.26V2.8a.51.51,0,0,1-.07.28.45.45,0,0,1-.19.17.73.73,0,0,1-.3.06H9.67Zm.31.29.34-.06.35,1.06h-.4Z"/><path class="cls-2" d="M11.1,4.2A.37.37,0,0,1,10.91,4a.47.47,0,0,1-.07-.27V2.54a.51.51,0,0,1,.07-.28.4.4,0,0,1,.19-.17.78.78,0,0,1,.6,0,.4.4,0,0,1,.19.17.51.51,0,0,1,.07.28V3.75a.47.47,0,0,1-.07.27.37.37,0,0,1-.19.18.78.78,0,0,1-.6,0Zm.4-.33a.13.13,0,0,0,.06-.07.3.3,0,0,0,0-.1V2.59a.25.25,0,0,0,0-.1.13.13,0,0,0-.06-.07l-.1,0-.1,0a.13.13,0,0,0-.06.07.25.25,0,0,0,0,.1V3.7a.3.3,0,0,0,0,.1.13.13,0,0,0,.06.07l.1,0Z"/><path class="cls-2" d="M12.83,3.4v.84h-.37V3.4l-.41-1.35h.39l.2.91.2-.91h.39Z"/><path class="cls-3" d="M4.44,4.43h0v.41h0Zm0,.37h.11a0,0,0,0,0,0,0V4.69s0,0,0,0,0,0,0,0h-.1v0h.08l0,0V4.48H4.47v0h.12l0,0v.15l0,0h0s0,0,0,0a.06.06,0,0,1,0,0v.06s0,0,0,0l0,0H4.47Z"/><path class="cls-3" d="M4.91,4.43H5v.41h0Zm0,.2H5l0,0V4.5l0,0H4.93v0h.13l0,0a.09.09,0,0,1,0,0v.05a.07.07,0,0,1,0,0s0,0,0,0H4.93Zm.08,0h0l.06.2h0Z"/><path class="cls-3" d="M5.39,4.43h0v.41h0Zm0,0h.14v0H5.42Zm0,.19h.13v0H5.42Zm0,.18h.14v0H5.42Z"/><path class="cls-3" d="M6,4.43H6L6,4.79l0-.36h0l-.06.41H6l0-.3,0,.3h0l-.06-.41h0l0,.36Z"/><path class="cls-3" d="M6.43,4.84h0V4.43h0Z"/><path class="cls-3" d="M6.72,4.43h0l.12.33h0V4.43h0v.41h0L6.75,4.5h0v.34h0Z"/><path class="cls-3" d="M7.39,4.62v.12a.07.07,0,0,1,0,0s0,0,0,0h-.1l0,0a.07.07,0,0,1,0,0V4.53a.07.07,0,0,1,0,0l0,0h.11l0,0a.13.13,0,0,1,0,.06v0h0v0s0,0,0,0l0,0H7.27l0,0a0,0,0,0,0,0,0v.21s0,0,0,0a0,0,0,0,0,0,0h.06s0,0,0,0V4.66h0v0Z"/><path class="cls-3" d="M8.06,4.83l0,0a.07.07,0,0,1,0,0V4.53a.07.07,0,0,1,0,0l0,0h.1a.08.08,0,0,1,0,0,.43.43,0,0,1,0,0v0h0v0a0,0,0,0,0,0,0l0,0H8.08s0,0,0,0a0,0,0,0,0,0,0v.21a0,0,0,0,0,0,0,0,0,0,0,0,0,0h.06a0,0,0,0,0,0,0,0,0,0,0,0,0,0v0h0v0a.43.43,0,0,1,0,0l0,0h-.1Z"/><path class="cls-3" d="M8.52,4.83s0,0,0,0a.08.08,0,0,1,0,0V4.53a.14.14,0,0,1,0-.06l0,0h.11l0,0a.13.13,0,0,1,0,.06v.21a.07.07,0,0,1,0,0l0,0H8.52Zm.09,0,0,0V4.49s0,0,0,0H8.54l0,0s0,0,0,0v.24s0,0,0,0h.07Z"/><path class="cls-3" d="M9.17,4.43h0v.41h0V4.53l-.08.25h0L9,4.53v.31H9V4.43H9l.09.3Z"/><path class="cls-3" d="M9.5,4.43h0v.41h0Zm0,.21h.11v0s0,0,0,0V4.52a0,0,0,0,0,0,0v0H9.52v0h.13l0,0a.07.07,0,0,1,0,0V4.6a.06.06,0,0,1,0,0l0,0H9.52Z"/><path class="cls-3" d="M10,4.43h.05l.09.41h0L10,4.48,10,4.84h0Zm0,.27h.14v0H10Z"/><path class="cls-3" d="M10.43,4.43h0l.13.33h0V4.43h0v.41h0l-.13-.34h0v.34h0Z"/><path class="cls-3" d="M11,4.67v.17h0V4.67l-.09-.24h0l.06.19.06-.19h0Z"/><path class="cls-4" d="M3.73,4.34c-.19,0,.14-.13.14-.13s-.16-.14-.51.13H3l-.38,0s.28-.21.18-1h0l-.19.15-.27.22h0l-.06,0h0l0-.08.37-.37.12-.12h0A1.84,1.84,0,0,0,3,2.45h.18s.09.14.13.14,0,0,0-.08,0-.14,0-.14.21,0,.27,0,0-.13-.2-.16l.2,0a.24.24,0,0,0-.21-.09c-.14,0,.17-.06.17-.06s-.13-.09-.22,0a1.12,1.12,0,0,1-.15.13l0,0-.14,0H2.78s-.29.07-.29,0S2.36,2,2.36,2V2l.24.19h.28V2s-1.15-.4-.66-1l.06,0,.35,0s.23.26.3.27,0,0,.06,0a.43.43,0,0,0,0-.1H2.89S2.79,1,2.83,1A.56.56,0,0,1,3,1L2.75.8h.31l0,.12h.11s0-.22,0-.29S2.69.58,2.69.58l0-.14H2v0h.1s.08.12,0,.14a.78.78,0,0,0-.21,1.3v.32H1.6A.65.65,0,0,1,1.4,2a.9.9,0,0,1-.08-.49L1.17,1.3,0,0V.54l1.12.93-.06.06L0,.74v.38l1.15.6H.9S.11,1.39.08,1.35s.23.45.23.45l.86.07V2l-.61,0L.19,1.86l.25.32.86-.06s0,.14-.74.23l.28.21.6-.26L1,2.62l.28.12.32-.29s0,.14-.18.34H1.6l.15-.31h.1l-.1.3h.1a1.27,1.27,0,0,1-.21.61.7.7,0,0,1-.2.18H1.22a2.32,2.32,0,0,0,.07-.4c0-.13,0-.25-.12-.26S.7,3.33.39,2.83c0,0,.31.68.59.23,0,0,.28,0,.05.28S1,4,1.18,4.05a.53.53,0,0,0,.26,0,1.15,1.15,0,0,1-.05.15.43.43,0,0,1-.07.1,2.47,2.47,0,0,0,0,.7.25.25,0,0,0-.11.18.2.2,0,0,0,.05.16l.06-.22s.28.13.27.35.05-.25.05-.25.13.06.15.13L1.7,5.22l0-.13h.17L1.71,5H1.44V4.79s0-.09.12-.27l.07-.08c.16-.14.48-.3.4-.35V3.42a.62.62,0,0,1,.3.41v0a3.82,3.82,0,0,1,0,.61v.29l.74-.2h.22V4.8l.13,0,0-.07V4.59h.19s.21.1.23.21.05.06.05.06.1-.19-.18-.33c0,0,.12-.15.19,0S3.92,4.36,3.73,4.34ZM2.36.58h.27L2.57.63l0,0H2.46l0,0H2.36Z"/><polygon class="cls-5" points="2.61 0.57 2.55 0.61 2.53 0.66 2.44 0.66 2.42 0.61 2.34 0.61 2.34 0.57 2.61 0.57"/><path class="cls-5" d="M3.07,2.17l0,0-.28,0s-.29.06-.28,0S2.34,2,2.34,2V1.94l.24.19h.15l.13,0h0Z"/><polygon class="cls-5" points="2.82 3.31 2.27 3.75 2.24 3.66 2.75 3.16 2.82 3.31"/></svg>