<svg xmlns="http://www.w3.org/2000/svg" viewBox="0 0 515.51 218.73"><defs><style>.cls-1{fill:#b8c1e0;}.cls-2{fill:#a47c26;}.cls-3{fill:#152460;}.cls-4,.cls-5{fill:none;stroke-miterlimit:10;}.cls-4{stroke:#a47c26;}.cls-5{stroke:#231f20;}.cls-6{fill:#000651;}.cls-7{fill:#fff;}</style></defs><title>logo</title><g id="text"><rect class="cls-1" x="39.75" width="92.89" height="199.55"/><path class="cls-2" d="M129.44,20.24a68.73,68.73,0,0,0-10.37,15.5Q111.45,51.67,109,55.28l-.63.63c-.33-.77-.58-1.38-.75-1.8a86.56,86.56,0,0,0-5.74-13.27,26.14,26.14,0,0,0-6.75-7.12c-7.58-5.73,6.16-7.79-3.5-7.79q-13.36,0-22.23,6.31T60.49,48.12q0,17.84,31.6,24.32L90.84,76C120.9,82.14,123,92.46,123,113.27q0,17.42-15.43,29.25c-10.28,7.9-10.11,15-25.26,15a155.51,155.51,0,0,1-31.85-3.72l-6-11.57a76.32,76.32,0,0,0-14.61-1.8,34.56,34.56,0,0,0-15.74,4.14l-9.62,7c10.33-13.23,26.19-34.32,30.35-46.29l2.25.53c1.75,11.12-1.62,28.24,7.12,34.4s20.2,9.24,34.35,9.24c11.16,0,6.67-6.11,13.71-9.75,9.56-4.94,7.93-10.54,9.87-17.73,2.2-8.12,8.32-12.48-.84-18.07-6.58-4,2.28-6.84-18.12-10.24Q59.61,89.74,49,80.61T38.38,55.23q0-16.77,14.18-27.23T89.47,17.54c9.74,0-1.25.68,11.74,3.65q9.12,2.13,13.49,2.13a30.37,30.37,0,0,0,13.37-3.61ZM116.55,84.82c11.32,7.29,14.64,19.61,14.64,32.28,0,13.52-1.54,23.83-13.86,33.21s-16.7,16-34.35,16A116.74,116.74,0,0,1,58.62,164L47.25,151.38a72.08,72.08,0,0,0-15-1.49,34.43,34.43,0,0,0-13.12,2.44l-1.49-3.08a35.93,35.93,0,0,1,13.24-2.55c5,0,2.08,9.13,8.49,10.4L58.62,161a121.24,121.24,0,0,0,24.23,2.34c16.65,0,17.93-7.68,29.63-16.71s15.21-17.6,15.21-30.41c0-10.83-2.15-22.66-11.14-30.8ZM47.25,85l4.25,2c2.74,4.18-11.58,6.84,1.75,9.6l20.11,4.25q20.48,4.35,27.29,7.48c4.54,2.09-5.13,2.09-3.21,6.34l-.88.43c-3.75-3.68,5.09-3.21.72-4.91s-12.77-3.78-25.17-6.26c-18-3.54-7.71-5.8-13.87-8.38S48.42,89.42,47.25,85Zm-6.74,33.6q4.62,19.11,24.73,27.08v.85C49.75,142.66,49,125,45.75,110.6Zm60.2-72.73Q87,33.39,71.23,33.4c-6.33,0,10.79,2.37,6.62,5.48S71.61,46,71.61,50.77q0,7.86,12.61,16.14l1,.53-.62.85Q68.1,62,68.11,50.14a16.08,16.08,0,0,1,7-13.49c4.67-3.47-11.61-6-4.12-6a43,43,0,0,1,18.8,3.88A25.31,25.31,0,0,1,101.59,45.4ZM137.18,24.7l-1.12,1.59a143.19,143.19,0,0,0-8.74,14q-8.75,15.6-9.87,17.41l-.63.74-3-1.06.5-.95q3.61-7,10.49-18.27l8.49-14,.63-.85Z"/><path class="cls-3" d="M152.54,163.67h5.92q3.61,0,5.27,1.48t1.65,4.7a6.76,6.76,0,0,1-.87,3.56,3.54,3.54,0,0,1-2.38,1.73v.16a4.54,4.54,0,0,1,2.84,1.94,7.2,7.2,0,0,1,.87,3.78,7.49,7.49,0,0,1-1.69,5.21,5.89,5.89,0,0,1-4.63,1.88h-7Zm4.06,9.83h2a2.22,2.22,0,0,0,1.92-.77,3.91,3.91,0,0,0,.55-2.29,3.09,3.09,0,0,0-.63-2.18,2.64,2.64,0,0,0-2-.66H156.6Zm0,3.79v6.84h2.18a2.36,2.36,0,0,0,2-.87,4.51,4.51,0,0,0,.65-2.69c0-2.18-.91-3.28-2.73-3.28Z"/><path class="cls-3" d="M171.71,178.6v9.51h-4.32V163.67H173c2.4,0,4.16.59,5.3,1.78s1.71,3,1.71,5.47q0,4.64-3,6.47l4.46,10.72h-4.62l-3.67-9.51Zm0-3.91h1.11a2.52,2.52,0,0,0,2.19-.92,4.51,4.51,0,0,0,.67-2.71,4,4,0,0,0-.71-2.67,2.77,2.77,0,0,0-2.18-.79h-1.08Z"/><path class="cls-3" d="M192.49,188.11H182V163.67h10.47v3.93h-6.15v5.82H192v3.94h-5.7v6.77h6.15Z"/><path class="cls-3" d="M213.49,188.11h-5.4l-2.27-12.81a47,47,0,0,1-.75-6.2l-.13,1.24-.65,5-2.2,12.74h-5.4l-4.21-24.44h4.24l2.08,13.79q.3,2.07.81,6.51.39-4.49.75-6.41l2.47-13.89h4.48l2.48,13.89q.48,3.09.78,6.44.56-5,.8-6.54l2-13.79h4.27Z"/><path class="cls-3" d="M219.15,188.11V163.67h4.06v24.44Z"/><path class="cls-3" d="M242.75,188.11h-5.27L230.3,170.4h-.2a23,23,0,0,1,.4,4.35v13.36h-4V163.67h5.31l7.11,17.52h.17a25.16,25.16,0,0,1-.3-4.18V163.67h4Z"/><path class="cls-3" d="M252.24,174.55h7.1v12.54a15.38,15.38,0,0,1-6.42,1.36,7.06,7.06,0,0,1-6.23-3.25q-2.17-3.24-2.18-9.34,0-5.9,2.5-9.22a8.25,8.25,0,0,1,7-3.33,10.26,10.26,0,0,1,5.31,1.51l-1.37,3.71a7.14,7.14,0,0,0-3.68-1.2,4.41,4.41,0,0,0-3.9,2.31,11.93,11.93,0,0,0-1.44,6.32,15.18,15.18,0,0,0,1,6.3,3.28,3.28,0,0,0,3,2.19,8.18,8.18,0,0,0,2.12-.28v-5.61h-2.87Z"/><path class="cls-3" d="M281.66,167.31c-1.24,0-2.21.76-2.93,2.29a15.44,15.44,0,0,0-1.07,6.37q0,8.5,4.21,8.5a7.41,7.41,0,0,0,3.86-1.24v4.05a7.48,7.48,0,0,1-4.36,1.18,6.73,6.73,0,0,1-6-3.28q-2.1-3.28-2.1-9.24t2.16-9.28a6.83,6.83,0,0,1,6-3.33,7.93,7.93,0,0,1,2.44.37,9.64,9.64,0,0,1,2.5,1.29L285,168.68a13,13,0,0,0-1.53-.94A3.67,3.67,0,0,0,281.66,167.31Z"/><path class="cls-3" d="M301.89,175.87q0,6.07-2.16,9.33a7.5,7.5,0,0,1-12.37,0q-2.16-3.26-2.16-9.37t2.16-9.31a7.05,7.05,0,0,1,6.23-3.23,6.93,6.93,0,0,1,6.16,3.25Q301.9,169.81,301.89,175.87Zm-12.27,0a15.82,15.82,0,0,0,1,6.37,3.16,3.16,0,0,0,2.94,2.19q3.9,0,3.9-8.56t-3.87-8.56a3.18,3.18,0,0,0-3,2.18A15.84,15.84,0,0,0,289.62,175.87Z"/><path class="cls-3" d="M311,188.13l-4.41-20.82h-.18a36,36,0,0,1,.3,4.41v16.41h-4V163.68h6.64l4,19.22h.12l3.94-19.22h6.73v24.45H320V171.56a40.75,40.75,0,0,1,.22-4.22h-.13l-4.39,20.79Z"/><path class="cls-3" d="M338.22,171.21a8.71,8.71,0,0,1-1.86,6,6.9,6.9,0,0,1-5.39,2.08h-1.08v8.86h-4.32V163.68h5.89Q338.23,163.68,338.22,171.21Zm-8.33,4.11h.82a3,3,0,0,0,2.37-.92,6.1,6.1,0,0,0,.06-5.86,2.6,2.6,0,0,0-2.21-.93h-1Z"/><path class="cls-3" d="M348.88,188.13,347.55,182H341.5l-1.34,6.17h-4.32l5.75-24.55h5.86l5.77,24.55Zm-2.14-10.2-1.24-5.69c-.08-.34-.24-1.21-.5-2.6s-.42-2.31-.47-2.78c-.14,1-.31,2-.52,3.17s-.77,3.79-1.66,7.9Z"/><path class="cls-3" d="M368.92,188.13h-5.27l-7.18-17.71h-.2a23,23,0,0,1,.39,4.35v13.36h-4V163.68H358l7.11,17.53h.17A25.24,25.24,0,0,1,365,177V163.68h4Z"/><path class="cls-3" d="M376,173.33l3.1-9.65h4.52l-5.51,14.65v9.8h-4.25v-9.62l-5.49-14.83h4.55Z"/><path class="cls-4" d="M83.83,151.2"/><path class="cls-2" d="M179.13,83.55H167v72.28H153.52V83.55h-13V70.08h38.59Z"/><path class="cls-2" d="M228.37,155.83H216L200.56,99.48h12V83.55h-12v72.28H187.08V70.08h29.16a9.31,9.31,0,0,1,6.49,2.45,9.75,9.75,0,0,1,3.19,6.13l.12,1.22v23.28a9.42,9.42,0,0,1-2.51,6.55,9.82,9.82,0,0,1-6.06,3.25Z"/><path class="cls-2" d="M247.72,155.83h-13.6L247.85,70h16.66l13.84,85.87H264.63l-2.82-18H250.66Zm8.45-59.29-3.42,27.81h6.86Z"/><path class="cls-2" d="M321.6,83.55H309.47v72.28H296V83.55H283V70.08H321.6Z"/><path class="cls-2" d="M368.39,70.08v85.75H354.92V113H343v42.87H329.56V70.08H343v29.4h11.88V70.08h13.47Z"/><path class="cls-2" d="M417.64,155.83H405.27L389.83,99.48h12V83.55h-12v72.28H376.35V70.08h29.16A9.33,9.33,0,0,1,412,72.53a9.75,9.75,0,0,1,3.19,6.13l.12,1.22v23.28a9.42,9.42,0,0,1-2.51,6.55,9.82,9.82,0,0,1-6.06,3.25Z"/><path class="cls-2" d="M454,70.08a9.94,9.94,0,0,1,8.09,9.68v66.52a9.29,9.29,0,0,1-2.33,6.25,9.74,9.74,0,0,1-5.76,3.3H431.36a9.68,9.68,0,0,1-5.76-3.3,9.24,9.24,0,0,1-2.33-6.25V79.76a9.94,9.94,0,0,1,8.09-9.68ZM448.63,92.6v-9H436.75v58.81h11.88V92.6Z"/><path class="cls-2" d="M515.51,70.08l-.85,3.06-14.94,53.17v29.52H486.24V126.31L471.17,73.14l-.74-3.06h13.72l.5,1.71L493,102.17l8.34-30.38.49-1.71h13.71Z"/></g><g id="dragon"><path class="cls-5" d="M13.27,118.11a0,0,0,0,0,0,0h0s0,0,0,0"/><path class="cls-6" d="M141.34,172.4c-7.13-.76,5.29-4.78,5.29-4.78s-6-5.61-19.36,4.78L101,173.47s10.6-7.86,6.77-39.47L87.55,150.22,86.39,147l18.76-18.57s7.86-17.16,6.77-27.8h6.76s3.47,5.47,4.74,5.45-.9-8.23-.9-8.23,8-.54,10.29,2-1-5.3-7.74-6.12l7.74-2.09a9.16,9.16,0,0,0-8.11-3.18c-5.31.55,6.4-2.51,6.4-2.51s-4.73-3.35-8.22-.14-5.66,4.91-5.66,4.91l-1.33,1.82-10.46,1.19s-11.22,2.44-10.87,0-5-9.68-5-9.68V82.11l9,7.3h5.67l4.93.49L109,81.74S65.68,66.53,84.3,43.41l2.22,1.79,13.16,1.46s8.86,9.9,11.47,10.34,3.22-5.66,3.22-5.66h-5s-3.66-5-2.2-5.77,6.22-.73,6.22-.73l-9.13-6.58h11.64l1,4.72h4s.73-8.55-2-11.29-17-1.84-17-1.84L101,24.56H74.1v1.3h3.53s2.93,4.58,1.75,5.06-35.65,19.83-8,49.55v12L60.65,91.8S48,82.66,50,63.47L0,7.93V28.21L42.29,63.47l-2,2.57L0,36.07V50.23L43.4,73.16H34.26S4.12,60.55,3,59.09s8.59,17,8.59,17l32.83,2.74v4L21.29,81.57,7.05,78.28,16.72,90.7l32.71-2.26s-.55,5.26-28.32,8.42l10.78,8.27,22.65-10L36.09,107.14l10.6,4.57L58.93,100.6s.74,5.45-7.13,13.13h8.67l5.83-11.84,4,.5-4,11.34h4S68.5,136.07,54.4,143.45H46.14s7-23.85-1.7-24.78-18,15.5-29.71-3.36C15.25,116.47,26.48,140.9,37,124c0,0,10.83-.59,1.9,10.71C23,154.81,46.32,164.86,54.66,162.76c0,0-1.94,7.47-4.68,9.64s-1.29,26.46-1.29,26.46-4.12,2.2-4.25,6.77,1.89,6,1.89,6l2-8s11,4.94,10.42,13,1.72-9.14,1.72-9.14,5,2,6,4.75c0,0,0,.08,0,.11-.45-1.49-2-6.5-2-6.5l-.54-4.94,6.38.19L65,197.76l-10.23-.36-.55-7.85s-.4-3.54,4.57-10.49c4.36-6.1,21.48-13.85,17.9-16.11l-.55-25.29a23,23,0,0,1,11.45,16.08c1.91,11.38,1.35,34.35,1.35,34.35l28.32-7.68h8.4v9.32l4.75,1.28-2-2.74.36-6.21,7.49-.55s7.85,3.84,8.58,7.85,1.83,2.56,1.83,2.56,3.66-7.45-6.76-12.86c0,0,4.49-5.4,7.38-1.76S148.46,173.16,141.34,172.4ZM89.53,30h10L97.3,31.77l-.55,1.74H93.37l-1-1.82H89.53Z"/><path class="cls-5" d="M83.77,43l.53.43c.3-.37.62-.75,1-1.13"/><path class="cls-5" d="M66.59,212.72l0-.09"/><polygon class="cls-7" points="99.58 30.04 97.3 31.77 96.75 33.51 93.37 33.51 92.37 31.69 89.53 31.69 89.53 30.04 99.58 30.04"/><path class="cls-7" d="M117.22,90.7l-1.33,1.82-10.46,1.19s-11.22,2.44-10.87,0-5-9.68-5-9.68V82.11l9,7.3h5.67l4.93.49V90Z"/><polygon class="cls-7" points="107.72 134.13 86.9 150.72 85.7 147.4 105.07 128.4 107.72 134.13"/></g></svg>